<svg width="540" height="424" viewBox="0 0 540 424" fill="none" xmlns="http://www.w3.org/2000/svg">
<g clip-path="url(#clip0_167_706)">
<g opacity="0.3">
<rect x="133.105" y="82.1853" width="46.6667" height="260" fill="url(#paint0_linear_167_706)"/>
<rect x="235" y="15.1882" width="23.3333" height="260" fill="url(#paint1_linear_167_706)"/>
<rect x="70.2874" y="189.423" width="36.6667" height="244.944" fill="url(#paint2_linear_167_706)"/>
<rect x="374.772" y="55.5186" width="53.3333" height="286.667" fill="url(#paint3_linear_167_706)"/>
<rect x="343.105" y="-8.76367" width="48.3333" height="304.992" fill="url(#paint4_linear_167_706)"/>
</g>
<path d="M105.251 149.279H85.251V117.946H73.584L95.251 87.946L116.917 117.946H105.251V149.279Z" fill="url(#paint5_linear_167_706)"/>
<path d="M477.639 254.86H457.639V223.527H445.972L467.639 193.527L489.305 223.527H477.639V254.86Z" fill="url(#paint6_linear_167_706)"/>
<path fill-rule="evenodd" clip-rule="evenodd" d="M163.891 180.499L270 140.006L376.109 180.499L270 220.993L163.891 180.499Z" fill="#454545"/>
<path fill-rule="evenodd" clip-rule="evenodd" d="M188.191 180.499L270 149.279L351.808 180.499L270 211.719L188.191 180.499Z" fill="#161616"/>
<path fill-rule="evenodd" clip-rule="evenodd" d="M197.46 180.499L270 152.817L342.539 180.499L270 208.182L197.46 180.499Z" fill="#454545"/>
<path fill-rule="evenodd" clip-rule="evenodd" d="M216.945 180.499L270 160.252L323.054 180.499L270 200.746L216.945 180.499Z" fill="#2D2D2D"/>
<path fill-rule="evenodd" clip-rule="evenodd" d="M253.058 180.5L270 174.034L286.942 180.5L270 186.965L253.058 180.5Z" fill="#BC9E27"/>
<path fill-rule="evenodd" clip-rule="evenodd" d="M163.891 180.5V389.001H270V220.993L163.891 180.5Z" fill="#161616"/>
<path fill-rule="evenodd" clip-rule="evenodd" d="M197.46 394.001H270V220.993L198.028 193.527L197.46 394.001Z" fill="#2A2A2A"/>
<path fill-rule="evenodd" clip-rule="evenodd" d="M242.26 402.334H254.1V214.926L242.26 210.407V402.334Z" fill="#161616"/>
<path fill-rule="evenodd" clip-rule="evenodd" d="M270 220.993V382.334H376.109V180.5L270 220.993Z" fill="#242424"/>
<path fill-rule="evenodd" clip-rule="evenodd" d="M310.736 414.001H344.732V192.474L310.736 205.447L310.736 414.001Z" fill="#2D2D2D"/>
<path fill-rule="evenodd" clip-rule="evenodd" d="M270 174.034V186.965L253.058 180.5L270 174.034Z" fill="#FBD336"/>
<path fill-rule="evenodd" clip-rule="evenodd" d="M79.0129 290.41L174.506 253.968L270 290.41L174.506 326.852L79.0129 290.41Z" fill="#454545"/>
<path fill-rule="evenodd" clip-rule="evenodd" d="M100.882 290.41L174.506 262.314L248.13 290.41L174.506 318.507L100.882 290.41Z" fill="#161616"/>
<path fill-rule="evenodd" clip-rule="evenodd" d="M109.224 290.41L174.506 265.497L239.788 290.41L174.506 315.323L109.224 290.41Z" fill="#454545"/>
<path fill-rule="evenodd" clip-rule="evenodd" d="M126.76 290.41L174.506 272.189L222.253 290.41L174.506 308.632L126.76 290.41Z" fill="#2D2D2D"/>
<path fill-rule="evenodd" clip-rule="evenodd" d="M159.259 290.409L174.506 284.591L189.753 290.409L174.506 296.228L159.259 290.409Z" fill="#BC9E27"/>
<path fill-rule="evenodd" clip-rule="evenodd" d="M79.0127 290.409V478.051H174.506V326.852L79.0127 290.409Z" fill="#161616"/>
<path fill-rule="evenodd" clip-rule="evenodd" d="M109.224 482.55H174.506V326.851L109.734 302.133L109.224 482.55Z" fill="#2A2A2A"/>
<path fill-rule="evenodd" clip-rule="evenodd" d="M149.542 490.05H160.198V321.391L149.542 317.324V490.05Z" fill="#161616"/>
<path fill-rule="evenodd" clip-rule="evenodd" d="M174.506 326.852V472.051H270V290.409L174.506 326.852Z" fill="#242424"/>
<path fill-rule="evenodd" clip-rule="evenodd" d="M211.167 500.55H241.761V301.186L211.167 312.861L211.167 500.55Z" fill="#2D2D2D"/>
<path fill-rule="evenodd" clip-rule="evenodd" d="M174.506 284.591V296.228L159.259 290.409L174.506 284.591Z" fill="#FBD336"/>
<path d="M114.061 224.413C118.496 250.567 163.695 229.981 173.76 250.567C186.34 276.299 224.02 253.41 242.1 281.155" stroke="white" stroke-dasharray="2 2"/>
<path fill-rule="evenodd" clip-rule="evenodd" d="M270 326.804L365.368 290.409L460.736 326.804L365.368 363.198L270 326.804Z" fill="#454545"/>
<path fill-rule="evenodd" clip-rule="evenodd" d="M291.841 326.804L365.368 298.744L438.895 326.804L365.368 354.864L291.841 326.804Z" fill="#161616"/>
<path fill-rule="evenodd" clip-rule="evenodd" d="M300.172 326.804L365.368 301.924L430.564 326.804L365.368 351.685L300.172 326.804Z" fill="#454545"/>
<path fill-rule="evenodd" clip-rule="evenodd" d="M317.684 326.804L365.368 308.607L413.052 326.804L365.368 345.001L317.684 326.804Z" fill="#2D2D2D"/>
<path fill-rule="evenodd" clip-rule="evenodd" d="M350.141 326.804L365.368 320.993L380.595 326.804L365.368 332.615L350.141 326.804Z" fill="#BC9E27"/>
<path fill-rule="evenodd" clip-rule="evenodd" d="M270 326.803V514.198H365.368V363.198L270 326.803Z" fill="#161616"/>
<path fill-rule="evenodd" clip-rule="evenodd" d="M300.172 518.692H365.368V363.198L300.682 338.512L300.172 518.692Z" fill="#2A2A2A"/>
<path fill-rule="evenodd" clip-rule="evenodd" d="M340.436 526.182H351.078V357.744L340.436 353.683V526.182Z" fill="#161616"/>
<path fill-rule="evenodd" clip-rule="evenodd" d="M365.368 363.198V508.206H460.736V326.803L365.368 363.198Z" fill="#242424"/>
<path fill-rule="evenodd" clip-rule="evenodd" d="M401.981 536.668H432.535V337.566L401.981 349.226L401.981 536.668Z" fill="#2D2D2D"/>
<path fill-rule="evenodd" clip-rule="evenodd" d="M365.368 320.993V332.615L350.141 326.804L365.368 320.993Z" fill="#FBD336"/>
<path d="M228.468 91.964C228.028 90.0564 228.657 88.2912 230.121 87.3242L236.239 83.2837L279.944 88.3601C282.584 88.6668 285.054 90.6713 285.884 93.182L305.116 151.344L302.041 157.902C301.352 159.372 299.846 160.252 298.02 160.252H249.758C246.707 160.252 243.678 157.842 242.991 154.87L228.468 91.964Z" fill="#666666"/>
<path d="M234.582 87.9331C233.895 84.9602 235.812 82.5503 238.863 82.5503H284.52C287.571 82.5503 290.601 84.9602 291.287 87.9331L305.278 148.535C305.964 151.508 304.048 153.918 300.996 153.918H255.34C252.289 153.918 249.259 151.508 248.573 148.535L234.582 87.9331Z" fill="white"/>
<path d="M284.52 82.5503C287.571 82.5503 290.601 84.9602 291.287 87.9331L305.278 148.535C305.965 151.508 304.048 153.918 300.997 153.918H255.34L284.52 82.5503Z" fill="#ECECEC"/>
<path d="M293.424 135.504C294.635 135.505 295.82 136.465 296.071 137.649C296.323 138.833 295.546 139.792 294.335 139.792H256.786C255.575 139.792 254.389 138.833 254.138 137.649C253.886 136.465 254.664 135.504 255.874 135.504H293.424ZM290.661 122.505C291.871 122.505 293.056 123.465 293.308 124.649C293.56 125.833 292.783 126.793 291.572 126.793H254.022C252.812 126.793 251.626 125.833 251.374 124.649C251.123 123.465 251.9 122.505 253.111 122.505H290.661ZM287.898 109.505C289.108 109.505 290.293 110.466 290.545 111.65C290.796 112.834 290.02 113.793 288.809 113.793H251.259C250.049 113.793 248.863 112.834 248.611 111.65C248.36 110.466 249.137 109.505 250.348 109.505H287.898ZM285.135 96.5056C286.345 96.5057 287.53 97.466 287.782 98.6501C288.033 99.834 287.256 100.794 286.046 100.794H248.496C247.286 100.794 246.1 99.8341 245.848 98.6501C245.596 97.4659 246.374 96.5056 247.585 96.5056H285.135Z" fill="#D9D9D9"/>
<path d="M293.424 135.504C294.635 135.505 295.819 136.465 296.071 137.649C296.322 138.833 295.546 139.792 294.335 139.792H261.115L262.868 135.504H293.424ZM290.661 122.504C291.871 122.504 293.056 123.465 293.308 124.649C293.56 125.833 292.783 126.792 291.573 126.792H266.43L268.183 122.504H290.661ZM287.898 109.505C289.108 109.506 290.293 110.466 290.544 111.65C290.796 112.834 290.019 113.793 288.809 113.793H271.746L273.499 109.505H287.898ZM285.134 96.5054C286.345 96.5055 287.53 97.4659 287.782 98.6499C288.033 99.8337 287.257 100.793 286.046 100.793H277.061L278.814 96.5054H285.134Z" fill="#BABABA"/>
<rect width="10.5061" height="10.5061" transform="matrix(0.987262 -0.159102 0.631417 0.775443 125.552 238.744)" fill="#00227C"/>
<rect width="10.5061" height="10.5061" transform="matrix(-0.355845 0.934545 0.631417 0.775443 139.663 227.254)" fill="#002EA6"/>
<path d="M135.925 237.072L139.663 227.254L129.291 228.926L125.552 238.744L135.925 237.072Z" fill="#4062BC"/>
<rect width="10.5061" height="10.5061" transform="matrix(0.619745 0.784804 -0.369787 0.929116 167.399 244.126)" fill="#00227C"/>
<rect width="10.5061" height="10.5061" transform="matrix(-0.989532 0.144313 -0.369787 0.929116 184.306 250.855)" fill="#002EA6"/>
<path d="M173.91 252.371L184.306 250.855L177.795 242.609L167.399 244.126L173.91 252.371Z" fill="#4062BC"/>
<rect width="10.5061" height="10.5061" transform="matrix(0.972972 0.230923 0.286501 0.95808 210.114 265.587)" fill="#00227C"/>
<rect width="10.5061" height="10.5061" transform="matrix(-0.686471 0.727157 0.286501 0.95808 227.548 260.374)" fill="#002EA6"/>
<path d="M220.336 268.013L227.548 260.373L217.326 257.947L210.114 265.587L220.336 268.013Z" fill="#4062BC"/>
<path d="M360.548 323.216L378.328 318.452L378.916 319.13L378.328 320.709L361.125 326.143L360.548 325.473V323.216Z" fill="#030303"/>
<rect width="51.7711" height="34.0999" transform="matrix(0.965926 -0.258819 0 1 342.539 278.079)" fill="#030303"/>
<path d="M392.546 264.68L342.539 278.079L346.538 281.448L396.545 268.048L392.546 264.68Z" fill="#BDBDCA"/>
<rect width="6.62726" height="13.7061" transform="matrix(0.965926 -0.258819 0 1 366.801 308.794)" fill="#D9D9D9"/>
<rect width="18.4069" height="2.25684" transform="matrix(0.965926 -0.258819 0 1 361.112 323.898)" fill="#D9D9D9"/>
<rect width="51.7711" height="34.0999" transform="matrix(0.965926 -0.258819 0 1 346.538 281.447)" fill="#8D8C9D"/>
<path d="M346.538 281.448L346.538 315.546L342.539 312.178V278.079L346.538 281.448Z" fill="#666666"/>
<rect width="45.819" height="28.2647" transform="matrix(0.965926 -0.258819 0 1 349.412 283.594)" fill="white"/>
<path d="M347.562 259.965L349.351 283.661L393.9 271.5L415.156 251.999L347.562 259.965Z" fill="url(#paint7_linear_167_706)"/>
<path d="M393.912 299.556V271.673L414.915 252.24V314.523L393.912 299.556Z" fill="url(#paint8_linear_167_706)"/>
<path d="M347.562 334.681L349.494 312.109L393.671 299.797L414.19 314.644L347.562 334.681Z" fill="url(#paint9_linear_167_706)"/>
<path d="M349.373 312.109V283.985L347.562 260.086V334.077L349.373 312.109Z" fill="url(#paint10_linear_167_706)"/>
<path d="M377.455 287.408C378.172 287.216 378.859 287.277 379.366 287.578C379.873 287.878 380.157 288.394 380.157 289.011V295.993C380.157 296.611 379.873 297.279 379.366 297.851C378.859 298.423 378.172 298.853 377.455 299.045L366.647 301.941C365.93 302.133 365.243 302.072 364.736 301.771C364.229 301.471 363.944 300.955 363.944 300.338V293.355C363.944 292.738 364.229 292.07 364.736 291.498C365.243 290.925 365.93 290.496 366.647 290.304V287.977C366.647 286.742 367.216 285.406 368.229 284.261C369.243 283.117 370.618 282.258 372.051 281.874C373.484 281.49 374.859 281.612 375.872 282.213C376.886 282.815 377.455 283.846 377.455 285.08V287.408ZM367.998 289.942L376.104 287.77V285.442C376.104 284.517 375.677 283.743 374.917 283.292C374.157 282.841 373.126 282.749 372.051 283.037C370.976 283.326 369.945 283.97 369.185 284.828C368.425 285.686 367.998 286.689 367.998 287.615V289.942ZM372.051 292.347C371.693 292.443 371.349 292.658 371.095 292.944C370.842 293.23 370.7 293.564 370.7 293.873V296.2C370.7 296.509 370.842 296.767 371.095 296.917C371.349 297.067 371.693 297.098 372.051 297.002C372.409 296.906 372.753 296.691 373.006 296.405C373.26 296.119 373.402 295.785 373.402 295.476V293.149C373.402 292.84 373.26 292.582 373.006 292.432C372.753 292.282 372.409 292.251 372.051 292.347Z" fill="#979CA4"/>
</g>
<defs>
<linearGradient id="paint0_linear_167_706" x1="149.471" y1="82.1853" x2="149.665" y2="189.924" gradientUnits="userSpaceOnUse">
<stop stop-opacity="0"/>
<stop offset="1" stop-opacity="0.5"/>
</linearGradient>
<linearGradient id="paint1_linear_167_706" x1="239.082" y1="15.1882" x2="239.082" y2="184.217" gradientUnits="userSpaceOnUse">
<stop stop-opacity="0"/>
<stop offset="1" stop-opacity="0.8"/>
</linearGradient>
<linearGradient id="paint2_linear_167_706" x1="76.702" y1="189.423" x2="76.702" y2="348.664" gradientUnits="userSpaceOnUse">
<stop stop-opacity="0"/>
<stop offset="1" stop-opacity="0.8"/>
</linearGradient>
<linearGradient id="paint3_linear_167_706" x1="384.102" y1="55.5186" x2="384.102" y2="241.884" gradientUnits="userSpaceOnUse">
<stop stop-opacity="0"/>
<stop offset="1" stop-opacity="0.6"/>
</linearGradient>
<linearGradient id="paint4_linear_167_706" x1="351.561" y1="-8.76367" x2="351.561" y2="189.515" gradientUnits="userSpaceOnUse">
<stop stop-opacity="0"/>
<stop offset="1" stop-opacity="0.4"/>
</linearGradient>
<linearGradient id="paint5_linear_167_706" x1="116.917" y1="149.279" x2="116.917" y2="87.946" gradientUnits="userSpaceOnUse">
<stop stop-opacity="0.01"/>
<stop offset="1"/>
</linearGradient>
<linearGradient id="paint6_linear_167_706" x1="489.305" y1="254.86" x2="489.305" y2="193.527" gradientUnits="userSpaceOnUse">
<stop stop-opacity="0.01"/>
<stop offset="1"/>
</linearGradient>
<linearGradient id="paint7_linear_167_706" x1="371.824" y1="258.276" x2="374.841" y2="277.347" gradientUnits="userSpaceOnUse">
<stop stop-color="white" stop-opacity="0"/>
<stop offset="1" stop-color="white" stop-opacity="0.5"/>
</linearGradient>
<linearGradient id="paint8_linear_167_706" x1="393.912" y1="284.227" x2="414.915" y2="285.554" gradientUnits="userSpaceOnUse">
<stop stop-color="white" stop-opacity="0.5"/>
<stop offset="1" stop-color="white" stop-opacity="0"/>
</linearGradient>
<linearGradient id="paint9_linear_167_706" x1="372.669" y1="305.47" x2="379.307" y2="326.486" gradientUnits="userSpaceOnUse">
<stop stop-color="white" stop-opacity="0.5"/>
<stop offset="1" stop-color="white" stop-opacity="0"/>
</linearGradient>
<linearGradient id="paint10_linear_167_706" x1="347.562" y1="297.082" x2="349.373" y2="297.082" gradientUnits="userSpaceOnUse">
<stop stop-color="white" stop-opacity="0"/>
<stop offset="1" stop-color="white" stop-opacity="0.5"/>
</linearGradient>
<clipPath id="clip0_167_706">
<rect width="540" height="424" rx="28" fill="white"/>
</clipPath>
</defs>
</svg>
